# xmcd
# 
# Track frame offsets:
#     150
#     22188
#     40923
#     55924
#     79235
#     90453
#     105633
#     116115
#     139793
#     166377
#     185131
# 
# Disc length: 2738
# 
# Revision: 2
# Processed by: cddbd v1.5.2PL0 Copyright (c) Steve Scherf et al.
# Submitted via: fre:ac v1.0.31
# 
DISCID=970ab00b
DTITLE=Lúnasa - the merry sisters of fate
DYEAR=0
DGENRE=World Music
TTITLE0=500 Hommes - Moonbeams
TTITLE1=Nicolas - La galope du brigadier
TTITLE2=Camarades
TTITLE3=Medley Brun
TTITLE4=Rose
TTITLE5=M'en allant chasser - Frères cadets
TTITLE6=Le sort des amoureux
TTITLE7=La houlette - Binilin DM
TTITLE8=En passant par chez vous - Les soeurs du couvent
TTITLE9=Rive-Sud
TTITLE10=Verse verse
EXTD=
EXTT0=
EXTT1=
EXTT2=
EXTT3=
EXTT4=
EXTT5=
EXTT6=
EXTT7=
EXTT8=
EXTT9=
EXTT10=
PLAYORDER=
